<svg xmlns="http://www.w3.org/2000/svg" xmlns:xlink="http://www.w3.org/1999/xlink" viewBox="0 0 60 70" version="1.1" x="0px" y="0px"><title>019 - League Table </title><desc>Created with Sketch.</desc><g stroke="none" stroke-width="1" fill="none" fill-rule="evenodd"><g fill="#000000" fill-rule="nonzero"><path d="M24,11.789 L24,12 C24,14.209139 25.790861,16 28,16 L29,16 L29,19 L27,19 C26.4477153,19 26,19.4477153 26,20 C26,20.5522847 26.4477153,21 27,21 L33,21 C33.5522847,21 34,20.5522847 34,20 C34,19.4477153 33.5522847,19 33,19 L31,19 L31,16 L32,16 C34.209139,16 36,14.209139 36,12 L36,11.789 C40.564,10.472 41.259,5.479 40.952,2.883 C40.8926839,2.37950711 40.4659748,2.00006688 39.959,2 L36,2 L36,1 C36,0.44771525 35.5522847,0 35,0 L25,0 C24.4477153,0 24,0.44771525 24,1 L24,2 L20.041,2 C19.5340252,2.00006688 19.1073161,2.37950711 19.048,2.883 C18.741,5.479 19.436,10.472 24,11.789 Z M39.005,4 C39,5.517 38.632,8.541 36,9.67 L36,4 L39.005,4 Z M24,4 L24,9.67 C21.367,8.54 21,5.516 21,4 L24,4 Z"/><path d="M41,30 L39,30 C38.4477153,30 38,30.4477153 38,31 C38,31.5522847 38.4477153,32 39,32 L45,32 C45.5522847,32 46,31.5522847 46,31 C46,30.4477153 45.5522847,30 45,30 L43,30 L43,27 C43,26.4477153 42.5522847,26 42,26 L31,26 L31,24 C31,23.4477153 30.5522847,23 30,23 C29.4477153,23 29,23.4477153 29,24 L29,26 L18,26 C17.4477153,26 17,26.4477153 17,27 L17,30 L15,30 C14.4477153,30 14,30.4477153 14,31 C14,31.5522847 14.4477153,32 15,32 L21,32 C21.5522847,32 22,31.5522847 22,31 C22,30.4477153 21.5522847,30 21,30 L19,30 L19,28 L41,28 L41,30 Z"/><path d="M28,42 L26,42 L26,39 C26,38.4477153 25.5522847,38 25,38 L19,38 L19,36 C19,35.4477153 18.5522847,35 18,35 C17.4477153,35 17,35.4477153 17,36 L17,38 L11,38 C10.4477153,38 10,38.4477153 10,39 L10,42 L8,42 C7.44771525,42 7,42.4477153 7,43 C7,43.5522847 7.44771525,44 8,44 L14,44 C14.5522847,44 15,43.5522847 15,43 C15,42.4477153 14.5522847,42 14,42 L12,42 L12,40 L24,40 L24,42 L22,42 C21.4477153,42 21,42.4477153 21,43 C21,43.5522847 21.4477153,44 22,44 L28,44 C28.5522847,44 29,43.5522847 29,43 C29,42.4477153 28.5522847,42 28,42 Z"/><path d="M21,54 L19,54 L19,51 C19,50.4477153 18.5522847,50 18,50 L12,50 L12,48 C12,47.4477153 11.5522847,47 11,47 C10.4477153,47 10,47.4477153 10,48 L10,50 L4,50 C3.44771525,50 3,50.4477153 3,51 L3,54 L1,54 C0.44771525,54 6.76353751e-17,54.4477153 0,55 C-6.76353751e-17,55.5522847 0.44771525,56 1,56 L7,56 C7.55228475,56 8,55.5522847 8,55 C8,54.4477153 7.55228475,54 7,54 L5,54 L5,52 L17,52 L17,54 L15,54 C14.4477153,54 14,54.4477153 14,55 C14,55.5522847 14.4477153,56 15,56 L21,56 C21.5522847,56 22,55.5522847 22,55 C22,54.4477153 21.5522847,54 21,54 Z"/><path d="M59,54 L57,54 L57,51 C57,50.4477153 56.5522847,50 56,50 L50,50 L50,48 C50,47.4477153 49.5522847,47 49,47 C48.4477153,47 48,47.4477153 48,48 L48,50 L42,50 C41.4477153,50 41,50.4477153 41,51 L41,54 L39,54 C38.4477153,54 38,54.4477153 38,55 C38,55.5522847 38.4477153,56 39,56 L45,56 C45.5522847,56 46,55.5522847 46,55 C46,54.4477153 45.5522847,54 45,54 L43,54 L43,52 L55,52 L55,54 L53,54 C52.4477153,54 52,54.4477153 52,55 C52,55.5522847 52.4477153,56 53,56 L59,56 C59.5522847,56 60,55.5522847 60,55 C60,54.4477153 59.5522847,54 59,54 Z"/><path d="M39,43 C39,42.4477153 38.5522847,42 38,42 L36,42 L36,40 L48,40 L48,42 L46,42 C45.4477153,42 45,42.4477153 45,43 C45,43.5522847 45.4477153,44 46,44 L52,44 C52.5522847,44 53,43.5522847 53,43 C53,42.4477153 52.5522847,42 52,42 L50,42 L50,39 C50,38.4477153 49.5522847,38 49,38 L43,38 L43,36 C43,35.4477153 42.5522847,35 42,35 C41.4477153,35 41,35.4477153 41,36 L41,38 L35,38 C34.4477153,38 34,38.4477153 34,39 L34,42 L32,42 C31.4477153,42 31,42.4477153 31,43 C31,43.5522847 31.4477153,44 32,44 L38,44 C38.5522847,44 39,43.5522847 39,43 Z"/></g></g><text x="0" y="71" fill="#000000" font-size="5px" font-weight="bold" font-family="'Helvetica Neue', Helvetica, Arial-Unicode, Arial, Sans-serif">Created by Ben Davis</text><text x="0" y="76" fill="#000000" font-size="5px" font-weight="bold" font-family="'Helvetica Neue', Helvetica, Arial-Unicode, Arial, Sans-serif">from the Noun Project</text></svg>